<svg width="160" height="160" viewBox="0 0 160 160" fill="none" xmlns="http://www.w3.org/2000/svg">
<circle cx="80" cy="80.0005" r="80" fill="white"/>
<path d="M102.576 72.8C110.508 72.8 116.97 66.335 116.97 58.4C116.97 50.465 110.508 44 102.576 44C96.8184 44 91.8405 47.42 89.5464 52.325L85.693 50.9C85.738 50.6 85.783 50.315 85.783 50C85.783 46.685 83.0991 44 79.7855 44C76.4719 44 73.788 46.685 73.788 50C73.788 53.315 76.4719 56 79.7855 56C81.9296 56 83.8038 54.86 84.8684 53.15L88.7218 54.575C88.3769 55.79 88.182 57.08 88.182 58.4C88.182 59.975 88.4369 61.475 88.9167 62.9L75.7222 68.495C73.3082 63.92 68.5102 60.8 62.9925 60.8C61.2082 60.8 59.499 61.145 57.9246 61.745L54.596 54.77C56.0504 53.675 56.995 51.95 56.995 50C56.995 46.685 54.3111 44 50.9975 44C47.6839 44 45 46.685 45 50C45 53.315 47.6839 56 50.9975 56C51.4923 56 51.9721 55.925 52.4369 55.805L55.7505 62.78C51.4773 65.27 48.5985 69.905 48.5985 75.2C48.5985 80.18 51.1324 84.575 54.9858 87.155L52.7968 91.1C52.227 90.92 51.6272 90.8 50.9975 90.8C47.6839 90.8 45 93.485 45 96.8C45 100.115 47.6839 102.8 50.9975 102.8C54.3111 102.8 56.995 100.115 56.995 96.8C56.995 94.985 56.1703 93.365 54.8809 92.27L57.085 88.31C58.8842 89.12 60.8784 89.6 62.9925 89.6C66.2911 89.6 69.3049 88.475 71.7339 86.615L76.4569 91.805C74.0579 94.385 72.5885 97.82 72.5885 101.6C72.5885 102.335 72.6635 103.055 72.7684 103.76L67.2207 105.08C66.2611 103.025 64.192 101.6 61.793 101.6C58.4794 101.6 55.7955 104.285 55.7955 107.6C55.7955 110.915 58.4794 113.6 61.793 113.6C65.1066 113.6 67.7905 110.915 67.7905 107.6C67.7905 107.54 67.7755 107.465 67.7755 107.405L73.3232 106.085C75.2124 111.83 80.6252 116 86.9975 116C94.9292 116 101.392 109.535 101.392 101.6C101.392 99.14 100.762 96.815 99.6822 94.79L106.729 90.2C107.824 91.31 109.323 91.985 111.003 91.985C114.316 91.985 117 89.3 117 85.985C117 82.67 114.316 79.985 111.003 79.985C107.689 79.985 105.005 82.67 105.005 85.985C105.005 86.765 105.17 87.5 105.44 88.175L98.3778 92.765C96.9683 90.95 95.1241 89.48 93.01 88.505L98.8576 72.275C100.027 72.605 101.287 72.8 102.576 72.8ZM79.7855 53.6C77.8063 53.6 76.187 51.98 76.187 50C76.187 48.02 77.8063 46.4 79.7855 46.4C81.7647 46.4 83.384 48.02 83.384 50C83.384 51.98 81.7647 53.6 79.7855 53.6ZM47.399 50C47.399 48.02 49.0183 46.4 50.9975 46.4C52.9767 46.4 54.596 48.02 54.596 50C54.596 51.98 52.9767 53.6 50.9975 53.6C49.0183 53.6 47.399 51.98 47.399 50ZM50.9975 100.4C49.0183 100.4 47.399 98.78 47.399 96.8C47.399 94.82 49.0183 93.2 50.9975 93.2C52.9767 93.2 54.596 94.82 54.596 96.8C54.596 98.78 52.9767 100.4 50.9975 100.4ZM61.793 111.2C59.8138 111.2 58.1945 109.58 58.1945 107.6C58.1945 105.62 59.8138 104 61.793 104C63.7722 104 65.3915 105.62 65.3915 107.6C65.3915 109.58 63.7722 111.2 61.793 111.2ZM110.973 82.4C112.952 82.4 114.571 84.02 114.571 86C114.571 87.98 112.952 89.6 110.973 89.6C108.993 89.6 107.374 87.98 107.374 86C107.374 84.02 108.993 82.4 110.973 82.4ZM95.514 68.075C96.0537 65.3 98.4977 63.2 101.377 63.2H103.776C106.654 63.2 109.098 65.3 109.638 68.075C107.659 69.53 105.215 70.4 102.576 70.4C99.9371 70.4 97.4931 69.53 95.514 68.075ZM102.576 60.8C100.597 60.8 98.9775 59.18 98.9775 57.2C98.9775 55.22 100.597 53.6 102.576 53.6C104.555 53.6 106.175 55.22 106.175 57.2C106.175 59.18 104.555 60.8 102.576 60.8ZM102.576 46.4C109.188 46.4 114.571 51.785 114.571 58.4C114.571 61.4 113.461 64.145 111.632 66.245C110.793 64.025 109.038 62.27 106.849 61.385C107.914 60.305 108.574 58.82 108.574 57.185C108.574 53.87 105.89 51.185 102.576 51.185C99.2624 51.185 96.5785 53.87 96.5785 57.185C96.5785 58.82 97.2382 60.29 98.3028 61.385C96.1137 62.255 94.3744 64.025 93.5198 66.245C91.6905 64.145 90.581 61.4 90.581 58.4C90.581 51.785 95.9638 46.4 102.576 46.4ZM50.9975 75.2C50.9975 68.585 56.3803 63.2 62.9925 63.2C69.6047 63.2 74.9875 68.585 74.9875 75.2C74.9875 78.215 73.863 80.96 72.0337 83.06C71.1941 80.84 69.4398 79.055 67.2507 78.185C68.3153 77.105 68.975 75.62 68.975 73.985C68.975 70.67 66.2911 67.985 62.9775 67.985C59.6639 67.985 56.98 70.67 56.98 73.985C56.98 75.62 57.6397 77.09 58.7043 78.185C56.5302 79.055 54.7759 80.81 53.9363 83.015C52.107 80.93 50.9975 78.185 50.9975 75.2ZM59.364 74C59.364 72.02 60.9833 70.4 62.9625 70.4C64.9417 70.4 66.561 72.02 66.561 74C66.561 75.98 64.9417 77.6 62.9625 77.6C60.9833 77.6 59.364 75.98 59.364 74ZM55.9155 84.86C56.4552 82.1 58.8842 80 61.763 80H64.162C67.0558 80 69.4998 82.115 70.0246 84.89C68.0454 86.33 65.6164 87.2 62.9775 87.2C60.3386 87.2 57.8946 86.33 55.9155 84.86ZM79.9055 111.26C80.4452 108.485 82.8892 106.4 85.768 106.4H88.167C91.0608 106.4 93.5048 108.515 94.0296 111.29C92.0504 112.73 89.6214 113.6 86.9825 113.6C84.3286 113.6 81.8846 112.73 79.9055 111.26ZM86.9525 104C84.9733 104 83.354 102.38 83.354 100.4C83.354 98.42 84.9733 96.8 86.9525 96.8C88.9317 96.8 90.551 98.42 90.551 100.4C90.551 102.38 88.9467 104 86.9525 104ZM98.9775 101.6C98.9775 104.615 97.853 107.36 96.0237 109.46C95.1841 107.24 93.4298 105.455 91.2407 104.585C92.3053 103.505 92.965 102.02 92.965 100.385C92.965 97.07 90.2811 94.385 86.9675 94.385C83.6539 94.385 80.97 97.07 80.97 100.385C80.97 102.02 81.6297 103.49 82.6943 104.585C80.5202 105.455 78.7659 107.21 77.9263 109.415C76.112 107.315 75.0025 104.585 75.0025 101.585C75.0025 94.97 80.3853 89.585 86.9975 89.585C93.6097 89.585 98.9775 94.985 98.9775 101.6ZM90.7309 87.71C89.5314 87.395 88.287 87.2 86.9825 87.2C83.6839 87.2 80.6701 88.325 78.2411 90.185L73.5181 84.995C75.9171 82.415 77.3865 78.98 77.3865 75.2C77.3865 73.625 77.1316 72.125 76.6518 70.7L89.8463 65.105C91.3307 67.895 93.6997 70.145 96.5785 71.465L90.7309 87.71Z" fill="#B82D28"/>
</svg>
