<svg width="160" height="160" viewBox="0 0 160 160" fill="none" xmlns="http://www.w3.org/2000/svg">
<circle cx="80" cy="80" r="80" fill="white"/>
<path d="M99.4165 85.1313H88.5564V78.9861C88.5564 77.7285 88.5564 75.6277 87.4704 73.7556C86.1129 71.4404 83.5979 70.2686 79.9827 70.2686C79.0396 70.2686 78.268 71.0403 78.268 71.9835V80.7868L75.1957 85.7744L71.409 88.2468V86.8462C71.409 85.903 70.6373 85.1313 69.6942 85.1313H58.2626C57.3195 85.1313 56.5479 85.903 56.5479 86.8462V114.285C56.5479 115.228 57.3195 116 58.2626 116H69.6942C70.2944 116 70.8517 115.686 71.1518 115.171C72.0949 115.714 73.1666 116 74.2669 116H97.1301C99.9738 116 102.274 113.699 102.274 110.87C102.274 109.869 101.989 108.897 101.446 108.054C101.617 107.926 101.774 107.783 101.917 107.64C103.632 105.925 103.918 103.238 102.589 101.194C102.76 101.066 102.917 100.923 103.06 100.78C104.989 98.8508 105.075 95.7496 103.26 93.7203C105.161 91.6052 104.975 88.3468 102.86 86.4604C101.903 85.6029 100.688 85.1313 99.4165 85.1313ZM67.9795 112.57H59.9773V88.5612H67.9795V112.57ZM98.3448 112.07C98.0304 112.399 97.5874 112.57 97.1301 112.57H74.2669C72.695 112.57 71.409 111.284 71.409 109.712V92.3483L77.6392 88.2896C78.0393 88.0324 78.3108 87.618 78.3966 87.1463L81.4545 82.173C81.626 81.9015 81.7117 81.5871 81.7117 81.2727V73.827C84.8554 74.3558 85.1412 76.4852 85.1412 78.9861V86.8462C85.1412 87.7894 85.9129 88.5612 86.856 88.5612H99.4308C100.374 88.5612 101.145 89.3329 101.145 90.2761C101.145 91.2193 100.374 91.991 99.4308 91.991H96.0013C95.0582 91.991 94.2865 92.7627 94.2865 93.706C94.2865 94.6492 95.0582 95.4209 96.0013 95.4209H99.4308C100.374 95.4209 101.145 96.1926 101.145 97.1358C101.145 98.079 100.374 98.8508 99.4308 98.8508H96.0013C95.0582 98.8508 94.2865 99.6225 94.2865 100.566C94.2865 101.509 95.0582 102.281 96.0013 102.281H98.2876C99.2307 102.281 100.002 103.052 100.002 103.996C100.002 104.939 99.2307 105.71 98.2876 105.71H96.0013C95.0582 105.71 94.2865 106.482 94.2865 107.425C94.2865 108.369 95.0582 109.14 96.0013 109.14H97.1444C98.0875 109.14 98.8592 109.912 98.8592 110.855C98.8449 111.313 98.6734 111.741 98.3448 112.07Z" fill="#B82D28"/>
<path d="M63.9784 111.569C64.9254 111.569 65.6932 110.802 65.6932 109.855C65.6932 108.908 64.9254 108.14 63.9784 108.14C63.0314 108.14 62.2637 108.908 62.2637 109.855C62.2637 110.802 63.0314 111.569 63.9784 111.569Z" fill="#B82D28"/>
<path d="M73.0806 58.6069L72.0375 64.6949C71.8803 65.6239 72.509 66.5099 73.4378 66.6814C73.8094 66.7386 74.1952 66.6814 74.5238 66.5099L79.9824 63.6374L85.4411 66.5099C86.6414 67.1959 88.2132 66.0526 87.9274 64.7092L86.8843 58.6212L91.2998 54.3196C91.9714 53.6622 91.9857 52.5761 91.3283 51.8901C91.0711 51.6186 90.7139 51.4471 90.3424 51.3899L84.2407 50.5039L81.5257 44.9589C81.1113 44.1158 80.0825 43.7585 79.2251 44.1729C78.8822 44.3444 78.6107 44.6159 78.4392 44.9589L75.7242 50.4896L69.6225 51.3756C68.6794 51.5185 68.0364 52.376 68.1793 53.3192C68.2364 53.6908 68.4079 54.0338 68.6794 54.3053L73.0806 58.6069ZM77.1103 53.748C77.6675 53.6622 78.1534 53.3192 78.3963 52.8047L79.9824 49.575L81.5829 52.819C81.8258 53.3192 82.3116 53.6765 82.8689 53.7623L86.427 54.2767L83.8549 56.792C83.4548 57.1921 83.269 57.7495 83.3548 58.3068L83.9692 61.851L80.7827 60.179C80.2825 59.9217 79.6824 59.9217 79.1822 60.179L76.01 61.851L76.6244 58.3068C76.7244 57.7495 76.5387 57.1778 76.1243 56.792L73.5522 54.2767L77.1103 53.748Z" fill="#B82D28"/>
<path d="M115.292 69.4681L110.362 65.7668L110.619 59.6073C110.662 58.6641 109.919 57.8638 108.976 57.8209C108.604 57.8066 108.233 57.9209 107.919 58.1353L102.874 61.6795L97.0871 59.5358C96.2011 59.2071 95.2152 59.6645 94.8865 60.5505C94.7579 60.9078 94.7436 61.2936 94.8579 61.6509L96.6727 67.5531L92.8431 72.3978C92.2572 73.141 92.3858 74.2128 93.1289 74.813C93.429 75.0417 93.7862 75.1703 94.172 75.1846L100.345 75.2846L103.76 80.4151C104.489 81.587 106.404 81.3298 106.804 80.015L108.805 74.1699L114.749 72.4979C115.663 72.2406 116.192 71.2974 115.935 70.3828C115.806 70.0112 115.592 69.6968 115.292 69.4681ZM106.99 71.0973C106.447 71.2545 106.018 71.6547 105.832 72.1977L104.675 75.599L102.674 72.6122C102.36 72.1406 101.831 71.8548 101.274 71.8548L97.673 71.7976L99.9021 68.9822C100.245 68.5392 100.359 67.9533 100.202 67.4102L99.1448 63.9804L102.517 65.2237C103.046 65.4238 103.632 65.338 104.103 65.0236L107.047 62.9514L106.904 66.5385C106.875 67.0958 107.133 67.6389 107.59 67.9819L110.462 70.1398L106.99 71.0973Z" fill="#B82D28"/>
<path d="M65.8216 75.156C67.1934 75.1846 68.0365 73.4268 67.1362 72.3835L63.3066 67.5388L65.1214 61.6366C65.4072 60.7363 64.8928 59.7645 63.9925 59.4929C63.6353 59.3786 63.2495 59.3929 62.8922 59.5215L57.105 61.6652L52.0751 58.121C51.3034 57.5779 50.2317 57.7637 49.6887 58.5354C49.4744 58.8498 49.36 59.2214 49.3743 59.593L49.6315 65.7524L44.6874 69.4681C43.93 70.0398 43.7728 71.1116 44.3444 71.869C44.573 72.1691 44.8874 72.3835 45.2589 72.4978L51.1891 74.1556L53.1896 80.0007C53.5897 81.3155 55.5045 81.5727 56.2333 80.4008L59.6485 75.2703L65.8216 75.156ZM57.305 72.5979L55.3045 75.5847L54.147 72.1977C53.9613 71.669 53.5326 71.2545 52.9896 71.0973L49.5315 70.1255L52.4037 67.9676C52.861 67.6246 53.1182 67.0958 53.0896 66.5242L52.9467 62.9371L55.8761 65.0093C56.3333 65.338 56.9335 65.4095 57.4622 65.2094L60.8345 63.9661L59.7771 67.3959C59.6056 67.939 59.72 68.5249 60.0772 68.9679L62.3064 71.7833L58.7054 71.8405C58.1338 71.8547 57.6194 72.1406 57.305 72.5979Z" fill="#B82D28"/>
</svg>
