<svg width="160" height="160" viewBox="0 0 160 160" fill="none" xmlns="http://www.w3.org/2000/svg">
<circle cx="80" cy="80.0005" r="80" fill="white"/>
<path d="M92.1223 106.22L73.7866 87.905V62C73.7866 61.34 73.2464 60.8 72.5862 60.8C64.3937 60.8 56.6213 64.445 51.3846 70.745L49.7791 68.78V60.8H47.3784V69.2C47.3784 69.47 47.4684 69.74 47.6485 69.965L49.8992 72.71C41.2265 85.25 44.3775 102.425 56.9064 111.095C67.8598 118.67 82.6694 117.335 92.1073 107.915C92.5875 107.45 92.5875 106.685 92.1223 106.22ZM72.5862 113.6C58.6769 113.6 47.3784 102.335 47.3784 88.43C47.3784 83.54 48.8038 78.74 51.4747 74.645L58.4518 83.165L60.3124 81.65L52.9451 72.65C57.4615 67.01 64.1686 63.59 71.3859 63.245V88.4C71.3859 88.715 71.5059 89.03 71.731 89.255L89.5415 107.06C84.9201 111.275 78.8732 113.615 72.5862 113.6Z" fill="#B82D28"/>
<path d="M102.596 46.4V44H92.9927C92.5426 44 92.1225 44.255 91.9124 44.66L87.1559 54.2C84.0349 53.015 80.7339 52.4 77.3879 52.4C76.7277 52.4 76.1875 52.94 76.1875 53.6V80C76.1875 80.48 76.4726 80.93 76.9227 81.11C77.0728 81.17 77.2228 81.2 77.3879 81.2C77.703 81.2 78.0181 81.08 78.2431 80.855L96.924 62.18C97.3891 61.715 97.3891 60.95 96.924 60.485C94.7183 58.295 92.1675 56.495 89.3766 55.145L93.743 46.4H102.596ZM94.3431 61.355L78.5882 77.105V54.83C81.139 54.95 83.6748 55.475 86.0756 56.36L83.5098 61.475L85.6554 62.555L88.2813 57.305C90.502 58.34 92.5276 59.705 94.3431 61.355Z" fill="#B82D28"/>
<path d="M117 108.8H103.796V111.2H117V108.8Z" fill="#B82D28"/>
<path d="M117 113.6H103.796V116H117V113.6Z" fill="#B82D28"/>
<path d="M110.158 92.06L105.851 90.74C106.076 89.345 106.196 87.95 106.196 86.54C106.211 79.22 103.3 72.185 98.1089 67.025C97.6437 66.56 96.8785 66.56 96.4134 67.025L77.7475 85.685C77.2824 86.15 77.2824 86.915 77.7475 87.38L96.4134 106.055C96.8785 106.52 97.6437 106.52 98.1089 106.055C101.68 102.485 104.201 98.015 105.386 93.11L108.597 94.1V105.2H110.998V93.2C110.998 92.675 110.668 92.21 110.158 92.06ZM103.541 90.005L94.5528 87.245L93.8476 89.54L103.09 92.39C102.115 96.53 100.105 100.34 97.2536 103.49L80.2983 86.54L97.2536 69.59C101.485 74.225 103.826 80.27 103.811 86.54C103.796 87.695 103.706 88.865 103.541 90.005Z" fill="#B82D28"/>
<path d="M61.7823 45.2H46.1775V47.6H61.7823V45.2Z" fill="#B82D28"/>
<path d="M61.7823 50H46.1775V52.4H61.7823V50Z" fill="#B82D28"/>
<path d="M54.5801 54.8H46.1775V57.2H54.5801V54.8Z" fill="#B82D28"/>
<path d="M117 44H106.197V46.4H117V44Z" fill="#B82D28"/>
<path d="M117 48.8H106.197V51.2H117V48.8Z" fill="#B82D28"/>
<path d="M112.199 53.6001H106.197V56.0001H112.199V53.6001Z" fill="#B82D28"/>
</svg>
