<svg width="160" height="160" viewBox="0 0 160 160" fill="none" xmlns="http://www.w3.org/2000/svg">
<circle cx="80" cy="80" r="80" fill="white"/>
<path d="M81.6889 65.3671L80.9998 66.0403L80.3107 65.3671C77.217 62.3377 72.1826 62.3377 69.1029 65.3671C67.5982 66.8538 66.7686 68.8173 66.7686 70.921C66.7686 73.0247 67.5982 74.9882 69.1029 76.4609L79.4951 86.7271C79.9029 87.1338 80.4373 87.3302 80.9857 87.3302C81.5201 87.3302 82.0545 87.1338 82.4623 86.7271L92.9248 76.4749C94.4295 74.9882 95.2592 73.0247 95.2592 70.921C95.2592 68.8173 94.4295 66.8538 92.9248 65.3671C89.817 62.3377 84.7826 62.3377 81.6889 65.3671ZM89.9436 73.4595L80.9717 82.2672L72.0561 73.4595C71.367 72.7723 70.9732 71.8747 70.9732 70.907C70.9732 69.9393 71.3529 69.0417 72.0561 68.3544C72.7873 67.6392 73.7436 67.2745 74.6998 67.2745C75.6561 67.2745 76.6123 67.6392 77.3436 68.3544L79.5092 70.4862C80.3248 71.2857 81.6467 71.2857 82.4623 70.4862L84.6279 68.3544C86.0904 66.9239 88.467 66.9239 89.9295 68.3544C90.6186 69.0417 91.0123 69.9393 91.0123 70.907C91.0264 71.8747 90.6467 72.7863 89.9436 73.4595Z" fill="#B82D28"/>
<path d="M102.473 49H59.5266C51.5109 49 45 55.3252 45 63.0951V84.988C45 92.7578 51.5109 99.083 59.5266 99.083H88.6641L100.983 111.383C101.391 111.79 101.925 112 102.473 112C102.741 112 103.022 111.944 103.275 111.846C104.062 111.523 104.583 110.752 104.583 109.896V98.9428C111.6 97.947 117 92.0706 117 84.988V63.0951C117 55.3252 110.489 49 102.473 49ZM112.781 84.988C112.781 90.4437 108.155 94.8756 102.473 94.8756C101.306 94.8756 100.364 95.8152 100.364 96.9793V104.819L91.0266 95.5067C90.6328 95.114 90.0984 94.8896 89.5359 94.8896H59.5266C53.8453 94.8896 49.2188 90.4577 49.2188 85.002V63.0951C49.2188 57.6394 53.8453 53.2075 59.5266 53.2075H102.473C108.155 53.2075 112.781 57.6394 112.781 63.0951V84.988Z" fill="#B82D28"/>
</svg>
