<svg width="160" height="160" viewBox="0 0 160 160" fill="none" xmlns="http://www.w3.org/2000/svg">
<circle cx="80" cy="80" r="80" fill="white"/>
<path d="M115.592 65.1922L100.517 44.8578C100.123 44.3234 99.4906 44 98.8156 44C98.1406 44 97.5219 44.3234 97.1141 44.8578L82.0672 65.1922C81.5891 65.8391 81.5187 66.6828 81.8844 67.4C82.2359 68.1172 82.9672 68.5672 83.7687 68.5672H89.1969V78.7625C88.1281 78.2141 86.9328 77.9047 85.6531 77.9047H81.8844C77.6094 77.9047 74.1219 81.3781 74.1219 85.6672V90.0688C73.0531 89.5203 71.8578 89.2109 70.5781 89.2109H66.8094C62.5344 89.2109 59.0469 92.6984 59.0469 96.9734V101.375C57.9781 100.827 56.7828 100.517 55.5031 100.517H51.7625C47.4734 100.489 44 103.962 44 108.237V113.891C44 115.058 44.9422 116 46.1094 116H106.353C107.52 116 108.463 115.058 108.463 113.891V68.5531H113.891C114.692 68.5531 115.409 68.1031 115.775 67.3859C116.127 66.6828 116.056 65.825 115.592 65.1922ZM48.2188 108.237C48.2188 106.283 49.8078 104.694 51.7625 104.694H55.5312C57.4859 104.694 59.075 106.283 59.075 108.237V111.781H48.2188V108.237ZM63.2797 108.237V96.9453C63.2797 94.9906 64.8687 93.4016 66.8234 93.4016H70.5922C72.5469 93.4016 74.1359 94.9906 74.1359 96.9453V111.781H63.2937V108.237H63.2797ZM78.3406 96.9453V85.6531C78.3406 83.6984 79.9297 82.1094 81.8844 82.1094H85.6531C87.6078 82.1094 89.1969 83.6984 89.1969 85.6531V111.781H78.3547V96.9453H78.3406ZM106.353 64.3344C105.186 64.3344 104.244 65.2766 104.244 66.4438V111.781H93.4016V66.4438C93.4016 65.2766 92.4594 64.3344 91.2922 64.3344H87.9453L98.8156 49.6531L109.686 64.3344H106.353Z" fill="#B82D28"/>
</svg>
