<svg width="160" height="160" viewBox="0 0 160 160" fill="none" xmlns="http://www.w3.org/2000/svg">
<circle cx="80" cy="80.0005" r="80" fill="white"/>
<path d="M66.125 58.3244C63.9229 59.1517 62.3333 61.2561 62.3333 63.7379C62.3333 64.6957 62.5958 65.581 63.0042 66.3793C61.2542 67.0469 60 68.7304 60 70.7042C60 72.678 61.2542 74.3615 63.0042 75.0291C62.5958 75.8274 62.3333 76.7127 62.3333 77.6705C62.3333 80.1523 63.9083 82.2567 66.125 83.084C65.95 83.5774 65.8333 84.0854 65.8333 84.6369C65.8333 87.1912 67.9333 89.2811 70.5 89.2811C71.0833 89.2811 71.6375 89.165 72.1479 88.9618C72.9062 90.5147 74.4958 91.6032 76.3333 91.6032C78.9 91.6032 81 89.5133 81 86.959V54.4494C81 51.8951 78.9 49.8052 76.3333 49.8052C74.4812 49.8052 72.9062 50.8937 72.1479 52.4466C71.6375 52.2434 71.0833 52.1273 70.5 52.1273C67.9333 52.1273 65.8333 54.2172 65.8333 56.7715C65.8333 57.323 65.95 57.831 66.125 58.3244ZM70.5 54.4494C71.7833 54.4494 72.8333 55.4944 72.8333 56.7715H75.1667C75.1667 55.654 74.7583 54.6381 74.0875 53.8398C74.3646 52.8529 75.2542 52.1273 76.3333 52.1273C77.6167 52.1273 78.6667 53.1722 78.6667 54.4494V86.959C78.6667 88.2361 77.6167 89.2811 76.3333 89.2811C75.2542 89.2811 74.3646 88.5554 74.0875 87.5685C74.7437 86.7703 75.1667 85.7544 75.1667 84.6369H72.8333C72.8333 85.914 71.7833 86.959 70.5 86.959C69.2167 86.959 68.1667 85.914 68.1667 84.6369C68.1667 83.3597 69.2167 82.3148 70.5 82.3148V79.9926C69.3625 79.9926 68.3417 80.4135 67.525 81.0956C65.9062 80.7909 64.6667 79.3831 64.6667 77.6705C64.6667 75.7548 66.2417 74.1874 68.1667 74.1874C70.0917 74.1874 71.6667 75.7548 71.6667 77.6705H74C74 74.4631 71.3896 71.8652 68.1667 71.8652C66.8542 71.8652 65.6437 72.3152 64.6667 73.0553V73.0263C63.3833 73.0263 62.3333 71.9813 62.3333 70.7042C62.3333 69.427 63.3833 68.3821 64.6667 68.3821V68.3531C65.6437 69.0932 66.8542 69.5431 68.1667 69.5431C71.3896 69.5431 74 66.9453 74 63.7379H71.6667C71.6667 65.6536 70.0917 67.221 68.1667 67.221C66.2417 67.221 64.6667 65.6536 64.6667 63.7379C64.6667 62.0398 65.9062 60.6175 67.525 60.3127C68.3417 60.9803 69.3625 61.4157 70.5 61.4157V59.0936C69.2167 59.0936 68.1667 58.0487 68.1667 56.7715C68.1667 55.4944 69.2167 54.4494 70.5 54.4494Z" fill="#B82D28"/>
<path d="M93.8332 52.1273C93.2499 52.1273 92.6958 52.2434 92.1853 52.4466C91.427 50.8937 89.852 49.8052 87.9999 49.8052C85.4333 49.8052 83.3333 51.8951 83.3333 54.4494V86.959C83.3333 89.5133 85.4333 91.6032 87.9999 91.6032C89.852 91.6032 91.427 90.5147 92.1853 88.9618C92.6958 89.1505 93.2499 89.2811 93.8332 89.2811C96.3999 89.2811 98.4999 87.1912 98.4999 84.6369C98.4999 84.0854 98.3832 83.5774 98.2082 83.084C100.41 82.2567 102 80.1523 102 77.6705C102 76.7127 101.752 75.8274 101.329 75.0291C103.079 74.3615 104.333 72.678 104.333 70.7042C104.333 68.7304 103.079 67.0469 101.329 66.3793C101.737 65.581 102 64.6957 102 63.7379C102 61.2561 100.425 59.1517 98.2082 58.3244C98.3832 57.831 98.4999 57.323 98.4999 56.7715C98.4999 54.2172 96.3999 52.1273 93.8332 52.1273ZM99.6666 63.7379C99.6666 65.6536 98.0916 67.221 96.1666 67.221C94.2416 67.221 92.6666 65.6536 92.6666 63.7379H90.3333C90.3333 66.9453 92.9437 69.5431 96.1666 69.5431C97.4791 69.5431 98.6895 69.0932 99.6666 68.3531V68.3821C100.95 68.3821 102 69.427 102 70.7042C102 71.9813 100.95 73.0263 99.6666 73.0263V73.0553C98.6895 72.3152 97.4791 71.8652 96.1666 71.8652C92.9437 71.8652 90.3333 74.4631 90.3333 77.6705H92.6666C92.6666 75.7548 94.2416 74.1874 96.1666 74.1874C98.0916 74.1874 99.6666 75.7548 99.6666 77.6705C99.6666 79.3686 98.427 80.7909 96.8082 81.0956C95.9916 80.428 94.9707 79.9926 93.8332 79.9926V82.3148C95.1166 82.3148 96.1666 83.3597 96.1666 84.6369C96.1666 85.914 95.1166 86.959 93.8332 86.959C92.5499 86.959 91.4999 85.914 91.4999 84.6369H89.1666C89.1666 85.7544 89.5749 86.7703 90.2457 87.5685C89.9687 88.5554 89.0791 89.2811 87.9999 89.2811C86.7166 89.2811 85.6666 88.2361 85.6666 86.959V54.4494C85.6666 53.1722 86.7166 52.1273 87.9999 52.1273C89.0791 52.1273 89.9687 52.8529 90.2457 53.8398C89.5895 54.6381 89.1666 55.654 89.1666 56.7715H91.4999C91.4999 55.4944 92.5499 54.4494 93.8332 54.4494C95.1166 54.4494 96.1666 55.4944 96.1666 56.7715C96.1666 58.0487 95.1166 59.0936 93.8332 59.0936V61.4157C94.9707 61.4157 95.9916 60.9949 96.8082 60.3127C98.427 60.6175 99.6666 62.0398 99.6666 63.7379Z" fill="#B82D28"/>
<path d="M100.542 51.2422C95.0875 46.1481 87.9417 43.5792 80.4458 44.0582L80.5917 46.3803C87.4313 45.9594 93.95 48.2815 98.9375 52.9402C103.925 57.599 106.667 63.9122 106.667 70.7189C106.667 78.9189 102.569 86.5093 95.6854 91.0519C93.3083 92.6194 91.5146 94.8544 90.4208 97.4232H73.8688C72.7458 94.8254 70.9521 92.5758 68.575 90.9939C61.4875 86.2771 57.4188 78.4109 57.6813 69.9352L55.3479 69.8626C55.0563 79.1366 59.5188 87.7574 67.2771 92.9241C68.9833 94.0707 70.3542 95.6236 71.3167 97.4232H68.1667V99.7453H72.2354C72.4688 100.5 72.6438 101.269 72.7313 102.067H70.5V104.39H72.8333V107.873C72.8333 108.511 73.3583 109.034 74 109.034H75.1667C75.1667 112.88 78.3021 116 82.1667 116C86.0313 116 89.1667 112.88 89.1667 109.034H90.3333C90.975 109.034 91.5 108.511 91.5 107.873V104.39H93.8333V102.067H91.5875C91.675 101.269 91.8354 100.5 92.0542 99.7453H96.1667V97.4232H92.9729C93.9063 95.6381 95.2771 94.1142 96.9833 92.9822C104.508 88.0042 109 79.6736 109 70.7044C109 63.3607 105.908 56.2638 100.542 51.2422ZM82.1667 113.663C79.6 113.663 77.5 111.574 77.5 109.019H86.8333C86.8333 111.574 84.7333 113.663 82.1667 113.663ZM89.1667 106.697H75.1667V104.375H89.1667V106.697ZM89.2542 102.053H75.0792C75.0063 101.269 74.875 100.486 74.6854 99.7308H89.6188C89.4292 100.486 89.3125 101.269 89.2542 102.053Z" fill="#B82D28"/>
<path d="M54.1667 52.1274C56.7333 52.1274 58.8333 54.2173 58.8333 56.7716C58.8333 57.4102 59.3583 57.9327 60 57.9327C60.6417 57.9327 61.1667 57.4102 61.1667 56.7716C61.1667 54.2173 63.2667 52.1274 65.8333 52.1274C66.475 52.1274 67 51.6049 67 50.9663C67 50.3278 66.475 49.8053 65.8333 49.8053C63.2667 49.8053 61.1667 47.7154 61.1667 45.1611C61.1667 44.5225 60.6417 44 60 44C59.3583 44 58.8333 44.5225 58.8333 45.1611C58.8333 47.7154 56.7333 49.8053 54.1667 49.8053C53.525 49.8053 53 50.3278 53 50.9663C53 51.6049 53.525 52.1274 54.1667 52.1274ZM60 49.0071C60.525 49.7763 61.1958 50.4439 61.9687 50.9663C61.1958 51.4888 60.525 52.1564 60 52.9256C59.475 52.1564 58.8042 51.4888 58.0312 50.9663C58.8042 50.4584 59.475 49.7908 60 49.0071Z" fill="#B82D28"/>
<path d="M58.8333 63.7379C59.475 63.7379 60 63.2155 60 62.5769C60 61.9383 59.475 61.4158 58.8333 61.4158C56.2667 61.4158 54.1667 59.3259 54.1667 56.7716C54.1667 56.133 53.6417 55.6105 53 55.6105C52.3583 55.6105 51.8333 56.133 51.8333 56.7716C51.8333 59.3259 49.7333 61.4158 47.1667 61.4158C46.525 61.4158 46 61.9383 46 62.5769C46 63.2155 46.525 63.7379 47.1667 63.7379C49.7333 63.7379 51.8333 65.8278 51.8333 68.3822C51.8333 69.0207 52.3583 69.5432 53 69.5432C53.6417 69.5432 54.1667 69.0207 54.1667 68.3822C54.1667 65.8278 56.2667 63.7379 58.8333 63.7379ZM53 64.5362C52.475 63.767 51.8042 63.0993 51.0312 62.5769C51.8042 62.0544 52.475 61.3868 53 60.6176C53.525 61.3868 54.1958 62.0544 54.9687 62.5769C54.1958 63.0993 53.525 63.767 53 64.5362Z" fill="#B82D28"/>
</svg>
